<?xml version="1.0" standalone="no"?>
<!DOCTYPE svg PUBLIC "-//W3C//DTD SVG 20010904//EN"
 "http://www.w3.org/TR/2001/REC-SVG-20010904/DTD/svg10.dtd">
<svg version="1.0" xmlns="http://www.w3.org/2000/svg"
 width="2189.000000pt" height="2189.000000pt" viewBox="0 0 2189.000000 2189.000000"
 preserveAspectRatio="xMidYMid meet">
<metadata>
Created by potrace 1.14, written by Peter Selinger 2001-2017
</metadata>
<g transform="translate(0.000000,2189.000000) scale(0.100000,-0.100000)"
fill="#000000" stroke="none">
<path d="M4709 21376 c-2 -2 -44 -7 -94 -10 -49 -4 -106 -9 -125 -11 -19 -3
-60 -7 -90 -10 -63 -7 -253 -33 -290 -40 -14 -3 -41 -8 -60 -11 -487 -81
-1051 -258 -1575 -494 -64 -29 -255 -124 -320 -160 -27 -15 -77 -42 -110 -60
-363 -196 -625 -420 -806 -688 -101 -150 -183 -332 -215 -473 -5 -24 -10 -47
-18 -79 -23 -97 -29 -362 -11 -475 13 -80 32 -167 42 -195 3 -8 7 -19 9 -25
34 -138 177 -402 290 -536 46 -55 195 -201 249 -245 94 -77 242 -172 410 -264
171 -94 891 -513 904 -526 3 -2 -6 -19 -19 -37 -593 -798 -1012 -1550 -1365
-2452 -61 -155 -226 -638 -260 -760 -9 -33 -23 -78 -30 -100 -8 -22 -21 -69
-30 -105 -10 -36 -19 -72 -21 -80 -66 -252 -173 -738 -198 -905 -4 -22 -13
-83 -22 -135 -23 -150 -29 -189 -39 -267 -28 -232 -35 -300 -50 -478 -4 -38
-8 -88 -10 -110 -26 -303 -27 -1149 0 -1425 1 -19 6 -75 10 -125 9 -123 14
-174 20 -215 3 -19 7 -57 10 -85 5 -50 21 -176 31 -257 12 -96 65 -411 89
-533 32 -163 34 -171 45 -219 8 -34 4 -48 -26 -107 -83 -165 -169 -430 -199
-611 -3 -18 -10 -55 -15 -83 -14 -75 -25 -178 -35 -325 -12 -178 -7 -492 10
-630 3 -19 7 -55 10 -80 6 -56 26 -188 31 -215 3 -11 9 -42 14 -70 16 -91 71
-289 107 -385 100 -267 249 -485 423 -618 19 -15 37 -29 40 -32 23 -26 169
-99 257 -130 194 -66 446 -48 635 46 l47 23 57 -87 c189 -290 397 -587 520
-742 24 -30 76 -95 115 -145 39 -49 90 -112 112 -140 45 -53 225 -263 242
-281 5 -6 53 -58 105 -115 105 -116 457 -469 565 -568 39 -35 88 -80 110 -100
266 -244 663 -558 1011 -799 135 -94 522 -345 545 -354 3 -2 9 -57 12 -123 3
-66 8 -131 11 -145 4 -14 9 -39 12 -57 8 -51 39 -153 69 -228 176 -443 628
-823 1205 -1014 156 -51 226 -71 332 -92 29 -6 62 -12 73 -14 66 -14 243 -37
320 -43 116 -9 427 -9 530 1 248 22 447 62 674 137 145 48 255 95 399 171 123
65 119 64 257 39 28 -5 80 -12 116 -15 36 -3 76 -7 90 -10 13 -2 56 -7 94 -10
39 -4 84 -9 100 -11 17 -1 68 -6 115 -9 47 -3 101 -8 120 -10 274 -27 1057
-28 1430 0 73 5 197 16 240 20 25 2 74 7 110 11 36 3 72 7 80 9 9 2 47 6 85 9
39 4 77 9 85 11 8 2 40 7 70 10 30 3 80 10 110 15 30 5 75 12 100 15 24 4 47
8 50 10 3 1 32 6 65 10 32 3 62 8 65 10 3 2 23 6 45 9 22 4 119 23 215 42 96
20 184 38 195 40 152 29 713 185 971 270 l51 17 93 -72 c331 -256 789 -442
1268 -515 15 -3 45 -7 67 -11 66 -10 162 -20 290 -31 130 -11 570 -4 705 11
19 2 60 7 90 10 99 11 135 16 160 20 14 2 45 7 70 10 90 12 288 49 370 70 30
8 66 16 80 18 14 3 70 17 125 32 55 15 114 31 130 35 89 24 280 87 434 145
910 339 1735 939 2148 1560 194 291 310 582 350 875 10 68 10 319 1 380 -65
434 -295 781 -693 1047 -49 33 -189 116 -310 183 -121 67 -223 125 -227 129
-6 5 59 115 99 167 4 5 13 19 20 30 6 10 56 91 111 179 142 228 201 330 319
550 63 116 223 438 270 540 78 170 162 367 197 460 15 39 33 84 40 100 59 130
212 581 301 885 62 211 176 681 201 830 2 14 9 45 14 70 5 25 14 72 20 105 5
33 12 71 15 85 3 14 8 44 11 66 2 23 7 53 9 65 5 24 11 58 20 114 3 17 7 54
11 83 3 29 7 61 9 70 2 10 6 45 10 77 3 33 8 74 10 90 2 17 6 57 10 90 3 33 8
74 10 90 2 17 7 71 11 120 3 50 8 106 10 125 20 192 27 1011 10 1275 -13 223
-13 227 -20 290 -3 33 -8 89 -11 125 -3 36 -7 81 -10 100 -5 42 -14 120 -20
175 -2 22 -6 57 -9 78 -11 67 -16 108 -21 155 -3 26 -8 54 -10 62 -3 8 -9 44
-14 80 -10 67 -27 167 -36 210 -3 14 -9 50 -15 80 -14 78 -16 87 -39 191 -11
52 -22 105 -24 119 -3 14 -14 61 -25 105 -12 44 -23 91 -26 105 -3 14 -12 52
-21 85 -9 33 -18 68 -20 78 -2 10 -7 27 -10 37 -3 10 -8 27 -10 37 -10 50
-102 354 -159 525 -95 287 -202 570 -319 839 l-54 126 69 54 c64 50 200 184
257 253 41 50 141 193 141 201 0 5 6 16 14 24 38 44 144 269 195 416 30 85 94
314 106 380 27 156 39 236 51 345 22 206 22 592 -1 805 -1 17 -6 59 -9 95 -61
591 -257 1270 -521 1805 -225 456 -484 810 -780 1068 -131 115 -159 136 -310
243 -307 218 -726 408 -1060 480 -273 59 -588 75 -790 39 -359 -64 -632 -194
-866 -412 -200 -187 -338 -391 -500 -738 -28 -60 -71 -153 -96 -205 -25 -52
-56 -120 -70 -150 -14 -30 -27 -57 -29 -59 -1 -2 -18 6 -36 17 -100 60 -346
190 -553 292 -684 336 -1384 587 -2135 767 -80 19 -158 37 -175 39 -16 3 -36
7 -44 10 -32 10 -438 87 -531 99 -25 3 -52 8 -60 10 -8 2 -37 6 -65 10 -27 3
-61 8 -75 10 -40 6 -180 24 -240 30 -30 3 -75 8 -100 11 -25 3 -61 7 -80 9
-19 2 -75 7 -125 10 -49 4 -106 8 -125 10 -42 4 -239 15 -365 21 -118 5 -593
5 -720 -1 -145 -6 -311 -15 -380 -20 -137 -11 -192 -16 -225 -20 -19 -2 -62
-7 -95 -10 -33 -3 -71 -8 -85 -10 -14 -2 -56 -6 -95 -10 -38 -4 -72 -8 -75
-10 -3 -2 -31 -6 -61 -9 -29 -4 -65 -8 -79 -10 -14 -2 -47 -7 -75 -10 -27 -4
-57 -9 -65 -11 -8 -2 -35 -7 -60 -10 -25 -4 -76 -13 -115 -20 -38 -8 -86 -17
-105 -20 -57 -9 -90 -15 -205 -40 -60 -13 -123 -27 -140 -29 -36 -7 -479 -119
-550 -139 -358 -105 -825 -265 -1000 -342 -40 -18 -135 -55 -140 -55 -2 0 -25
43 -50 96 -173 365 -475 633 -910 807 -81 32 -302 101 -358 111 -12 2 -60 11
-107 20 -92 17 -132 23 -225 32 -33 3 -71 8 -85 11 -29 6 -625 14 -631 9z
m7006 -1228 c128 -64 154 -79 310 -171 169 -101 323 -208 563 -392 11 -9 10
-11 -5 -12 -10 -1 -67 -13 -128 -27 -60 -13 -123 -27 -140 -30 -230 -39 -389
-65 -430 -70 l-50 -6 -39 108 c-22 59 -92 238 -155 398 l-116 291 35 -15 c19
-8 89 -41 155 -74z m-1325 69 c0 -4 -106 -273 -119 -302 -5 -11 -32 -81 -61
-155 -28 -74 -57 -151 -64 -170 -8 -19 -24 -62 -36 -95 l-23 -61 -56 7 c-31 4
-76 10 -101 13 -140 20 -197 29 -215 32 -11 2 -60 11 -110 20 -195 33 -256 47
-257 59 -1 10 103 94 197 160 28 20 84 59 125 88 175 123 359 232 575 341 121
61 145 71 145 63z m3393 -183 c48 -14 87 -30 87 -34 0 -4 -11 -11 -25 -14 -18
-5 -46 5 -102 35 -80 43 -118 69 -73 50 14 -6 64 -22 113 -37z m-5475 31 c-2
-3 -61 -34 -131 -70 l-126 -64 -41 18 -41 18 38 11 c21 5 97 28 168 51 141 43
141 43 133 36z m2826 -537 c51 -132 53 -138 32 -139 -59 -3 -412 -5 -418 -2
-9 5 13 67 122 342 l93 234 59 -149 c33 -82 83 -211 112 -286z m3602 156 c212
-87 656 -305 878 -431 71 -40 132 -73 135 -73 4 0 12 -5 18 -11 9 -9 -8 -51
-68 -170 -74 -146 -97 -177 -114 -150 -9 15 -110 91 -330 248 -110 78 -205
147 -212 153 -7 5 -15 10 -19 10 -3 0 -23 14 -44 30 -21 17 -41 30 -44 30 -3
0 -27 15 -53 34 -27 19 -123 81 -215 139 l-167 105 97 50 c53 27 98 50 98 51
1 1 19 -6 40 -15z m-7386 -154 c0 -4 -12 -13 -27 -21 -16 -7 -31 -15 -34 -17
-4 -1 -10 10 -13 25 -4 15 -9 36 -12 46 -5 16 -1 15 40 -5 25 -12 46 -25 46
-28z m6745 -420 c198 -118 443 -274 580 -368 44 -31 109 -76 145 -101 90 -62
233 -167 378 -278 l123 -95 -19 -31 c-11 -18 -37 -63 -57 -102 -50 -91 -212
-380 -239 -425 -12 -19 -28 -47 -35 -62 -8 -16 -17 -28 -21 -28 -3 0 -16 19
-28 43 -34 67 -88 163 -165 292 -40 66 -74 125 -77 130 -20 40 -250 388 -333
505 -102 143 -197 269 -302 400 -102 129 -110 138 -189 228 -25 29 -46 55 -46
57 0 2 21 -9 48 -24 26 -16 133 -79 237 -141z m-6036 68 c-30 -35 -58 -68 -64
-74 -5 -6 -23 -28 -40 -48 -16 -21 -37 -46 -45 -56 -8 -9 -26 -32 -40 -50 -14
-18 -30 -38 -35 -44 -6 -6 -35 -45 -65 -86 -30 -41 -57 -77 -60 -80 -4 -3 -36
-47 -72 -98 l-67 -93 -50 157 c-28 87 -50 158 -49 160 7 5 326 203 353 218 17
10 86 50 155 90 69 40 127 71 129 70 2 -2 -21 -32 -50 -66z m5178 -205 c279
-303 533 -631 777 -1006 81 -124 276 -443 276 -451 0 -1 27 -50 59 -107 42
-72 56 -106 48 -110 -10 -6 -107 -31 -207 -54 -8 -2 -55 -13 -105 -24 -73 -17
-248 -55 -350 -76 -203 -40 -494 -92 -675 -119 -19 -3 -80 -12 -135 -21 -104
-15 -130 -19 -230 -30 -33 -4 -63 -9 -67 -11 -3 -2 -13 19 -21 48 -8 29 -49
178 -91 332 -129 466 -237 819 -391 1279 -55 162 -70 217 -59 218 8 1 17 2 22
3 4 1 34 6 67 11 33 5 62 9 65 10 3 0 27 4 53 9 27 4 59 9 70 12 12 2 60 11
107 20 83 16 416 91 495 113 22 6 43 11 47 12 4 0 33 9 65 19 32 11 65 19 74
19 9 1 57 -43 106 -96z m-4117 -8 c154 -34 329 -69 410 -81 19 -3 42 -7 50 -9
8 -2 38 -7 65 -11 28 -3 59 -8 70 -10 11 -3 45 -7 77 -10 84 -10 84 -10 53
-100 -15 -43 -31 -88 -35 -99 -5 -11 -35 -105 -68 -210 -33 -104 -75 -235 -92
-290 -18 -55 -42 -136 -55 -180 -13 -44 -44 -152 -70 -240 -26 -88 -48 -167
-50 -175 -2 -8 -13 -46 -24 -85 -17 -62 -66 -245 -76 -285 -3 -8 -17 -61 -32
-117 l-27 -103 -30 5 c-64 11 -92 15 -138 20 -26 3 -80 10 -120 16 -40 5 -86
12 -103 14 -36 5 -129 20 -280 46 -60 10 -126 21 -145 24 -32 5 -201 38 -341
66 l-56 11 -70 167 c-39 91 -99 237 -133 324 l-63 159 18 31 c25 43 209 320
253 382 212 294 417 549 610 756 l63 67 87 -23 c48 -13 161 -40 252 -60z
m2398 -498 c124 -372 219 -672 307 -977 58 -198 164 -584 162 -586 -1 -1 -51
-5 -112 -9 -60 -4 -132 -8 -159 -10 -265 -19 -979 -25 -1296 -11 -258 11 -462
25 -468 31 -4 3 46 195 104 405 50 177 59 210 100 345 19 66 46 156 59 200 13
44 49 159 80 255 31 96 62 195 70 220 7 25 43 133 80 240 l66 195 367 -1 c202
-1 401 2 442 5 41 4 80 5 86 3 6 -1 56 -139 112 -305z m-7885 -1846 c298 -192
372 -243 369 -253 -2 -6 -44 -74 -94 -151 -157 -243 -408 -672 -408 -697 0 -8
-69 14 -160 51 -14 6 -137 55 -275 110 -137 55 -253 103 -258 108 -4 4 18 46
48 95 30 48 55 89 55 90 0 2 55 86 123 187 67 101 124 189 126 194 2 6 7 12
10 15 4 3 29 37 56 75 27 39 87 121 133 182 75 100 86 112 103 102 11 -6 88
-54 172 -108z m10692 -18 c-14 -21 -28 -43 -33 -48 -4 -6 -37 -53 -72 -105
-171 -255 -488 -680 -659 -882 -133 -159 -154 -183 -281 -323 -88 -97 -233
-245 -237 -242 -1 2 -5 20 -9 41 -3 21 -8 48 -10 60 -2 11 -7 37 -10 56 -3 19
-12 67 -20 107 -7 39 -17 88 -20 109 -8 49 -12 72 -18 92 -3 9 -7 34 -10 54
-3 21 -10 57 -15 80 -6 24 -13 59 -16 78 -3 19 -11 55 -16 80 -6 25 -12 54
-14 65 -2 11 -13 65 -25 120 -12 55 -24 111 -26 123 -3 13 -18 81 -34 150 -16
70 -26 130 -22 133 4 4 38 10 75 14 37 3 76 8 85 10 35 6 128 20 202 30 25 3
70 10 100 15 89 15 113 19 155 25 22 4 85 15 140 26 55 10 118 21 140 25 22 3
42 7 45 9 3 2 26 6 50 10 25 3 74 13 110 21 130 30 149 34 182 39 18 4 87 19
153 35 66 15 123 28 127 29 4 1 -4 -16 -17 -36z m-5795 -157 c41 -8 95 -17
120 -21 25 -3 70 -10 100 -15 30 -5 75 -12 100 -15 25 -3 57 -8 71 -10 27 -5
64 -10 144 -20 28 -3 62 -8 78 -11 30 -6 30 -1 3 -114 -19 -80 -104 -487 -111
-532 -3 -18 -14 -72 -23 -120 l-17 -87 -61 92 c-82 123 -256 414 -336 562
-101 185 -158 294 -158 300 0 7 6 7 90 -9z m1410 -170 c58 -4 128 -9 155 -11
334 -27 1371 -27 1725 0 29 2 159 10 300 19 21 1 26 -5 31 -34 4 -19 21 -94
38 -165 17 -72 33 -149 37 -170 3 -22 8 -43 10 -47 2 -3 9 -28 14 -55 5 -26
16 -79 24 -118 8 -38 18 -86 21 -105 3 -19 12 -63 20 -98 8 -34 17 -77 20 -95
3 -17 14 -79 25 -137 11 -58 22 -118 25 -135 27 -152 35 -197 39 -217 3 -13 8
-39 11 -58 2 -19 7 -46 9 -60 3 -14 12 -72 21 -130 9 -58 18 -116 20 -130 4
-22 -9 -34 -103 -102 -114 -81 -287 -190 -368 -231 -40 -20 -70 -26 -164 -31
-362 -22 -657 -30 -1090 -30 l-405 0 -90 53 c-131 77 -286 190 -400 291 -105
93 -268 254 -328 323 l-24 28 23 137 c13 75 26 151 29 167 20 123 39 226 70
380 13 66 27 135 30 153 3 18 12 65 21 105 8 39 18 83 20 97 2 14 11 57 20 95
8 39 16 79 18 90 3 11 12 53 21 94 9 40 18 78 19 85 7 36 19 54 34 51 9 -1 64
-6 122 -9z m-5365 -289 c25 -19 155 -114 175 -127 88 -59 677 -513 700 -539 3
-3 27 -24 55 -46 66 -53 261 -220 358 -308 61 -55 76 -74 71 -90 -3 -11 -7
-25 -8 -31 -2 -6 -6 -28 -11 -49 -4 -20 -11 -40 -16 -42 -4 -3 -43 4 -86 15
-43 11 -88 23 -100 26 -21 4 -263 70 -363 99 -25 7 -72 20 -105 29 -58 16
-123 36 -390 118 -248 76 -765 250 -765 257 0 6 99 182 189 336 47 79 220 346
239 367 12 15 18 16 31 5 9 -6 20 -16 26 -20z m-1995 -784 c8 -3 29 -11 45
-18 17 -7 77 -32 135 -55 58 -23 119 -48 135 -55 17 -7 91 -37 165 -66 74 -28
138 -55 143 -58 4 -4 -18 -65 -49 -137 -175 -403 -343 -881 -449 -1279 -42
-155 -64 -242 -69 -265 -3 -14 -10 -45 -17 -70 -6 -25 -13 -56 -15 -70 -3 -14
-14 -63 -24 -110 -10 -47 -21 -98 -24 -115 -11 -56 -26 -140 -30 -160 -2 -11
-7 -40 -11 -65 -11 -67 -14 -82 -17 -85 -5 -4 -809 248 -827 260 -17 10 151
696 209 855 5 14 23 70 40 125 128 406 303 843 505 1262 l69 142 35 -16 c20
-8 43 -17 51 -20z m17131 -461 c70 -165 93 -223 161 -397 89 -230 202 -567
272 -816 55 -192 146 -557 146 -583 0 -11 -381 -142 -780 -268 -36 -12 -70
-23 -76 -25 -15 -5 -28 51 -60 255 -3 20 -8 40 -10 43 -2 3 -6 21 -9 40 -3 19
-17 84 -31 144 -14 61 -27 120 -30 133 -5 26 -52 209 -84 327 -63 236 -205
664 -298 900 l-60 150 72 17 c39 9 82 19 96 22 14 2 48 9 75 16 28 6 61 14 75
16 14 3 33 7 42 10 10 3 30 7 45 10 16 3 82 16 148 29 66 14 138 27 159 31 21
3 47 9 58 13 48 17 55 12 89 -67z m-15596 -116 c154 -52 332 -111 395 -131
121 -39 451 -139 485 -148 11 -3 74 -21 140 -40 103 -30 359 -101 405 -112 50
-12 215 -57 218 -60 1 -1 -6 -45 -17 -96 -11 -52 -26 -132 -35 -179 -9 -47
-18 -98 -21 -115 -8 -38 -54 -319 -61 -364 -2 -19 -7 -48 -10 -65 -9 -52 -21
-143 -30 -213 -1 -13 -5 -40 -8 -60 -7 -44 -12 -85 -26 -208 -6 -49 -12 -106
-15 -125 -2 -19 -7 -62 -10 -95 -3 -33 -8 -80 -10 -105 -10 -94 -14 -138 -20
-225 -4 -49 -9 -108 -11 -130 -2 -22 -6 -96 -10 -165 -3 -69 -7 -126 -8 -127
-1 -1 -55 9 -176 33 -14 3 -56 11 -95 19 -116 23 -409 85 -427 91 -10 3 -30 7
-45 10 -16 2 -41 7 -58 11 -16 4 -35 8 -40 9 -16 3 -216 50 -442 105 -111 27
-213 51 -225 53 -24 5 -292 74 -483 124 -60 16 -168 45 -239 63 l-128 34 6 50
c9 72 15 105 43 250 14 72 27 141 29 155 3 14 7 33 10 42 3 10 7 30 10 45 38
218 227 866 329 1128 13 33 41 107 63 165 36 94 123 301 182 433 16 36 26 48
38 44 10 -3 143 -48 297 -101z m14190 -296 c31 -80 68 -176 82 -215 13 -38 28
-79 33 -90 42 -94 224 -706 255 -855 2 -8 8 -33 14 -55 5 -22 13 -56 16 -75 3
-19 8 -43 11 -52 6 -19 6 -21 34 -158 23 -112 26 -125 34 -182 3 -21 10 -57
16 -80 5 -24 10 -57 10 -74 0 -28 -4 -31 -47 -42 -27 -7 -88 -24 -138 -38
-146 -42 -248 -69 -535 -145 -211 -56 -777 -196 -865 -213 -11 -3 -90 -20
-175 -40 -167 -38 -424 -93 -517 -111 -16 -3 -34 -8 -40 -10 -8 -3 -13 6 -14
23 0 15 -2 50 -4 77 -2 28 -7 86 -10 130 -12 173 -21 289 -30 365 -6 51 -14
137 -20 205 -3 33 -8 78 -11 100 -11 75 -12 90 -19 150 -3 33 -8 67 -10 75 -2
8 -6 40 -10 71 -3 31 -7 65 -9 75 -2 11 -7 42 -10 69 -7 46 -52 335 -60 380
-7 35 -16 89 -20 118 -3 15 -7 36 -11 46 -5 16 14 27 137 79 417 177 946 365
1468 520 324 97 374 110 381 103 4 -3 32 -71 64 -151z m-11853 -356 c40 -8 82
-18 93 -20 11 -3 40 -9 65 -14 25 -5 56 -12 70 -15 14 -2 61 -12 105 -21 44
-9 86 -21 93 -26 19 -16 202 -292 257 -388 121 -212 228 -466 261 -622 35
-163 41 -227 38 -375 -1 -87 -5 -169 -7 -183 -3 -14 -9 -43 -12 -65 -20 -119
-121 -361 -198 -475 -91 -135 -128 -178 -150 -175 -57 7 -132 17 -146 20 -16
3 -143 21 -211 31 -43 5 -203 31 -285 45 -33 5 -76 12 -95 15 -19 2 -62 9 -95
16 -74 13 -93 16 -124 17 l-24 1 7 154 c4 84 9 164 11 177 2 13 6 66 10 117 3
52 7 108 10 125 2 18 7 66 10 107 11 136 20 220 50 460 53 419 171 1110 190
1110 2 0 37 -7 77 -16z m9219 -466 c0 -7 2 -20 4 -28 4 -17 30 -190 40 -260 3
-25 8 -52 10 -60 2 -8 7 -35 10 -60 3 -25 7 -61 10 -80 3 -19 7 -55 10 -80 4
-25 8 -56 10 -70 2 -14 9 -70 15 -125 15 -135 18 -159 25 -235 3 -36 8 -82 11
-102 2 -20 6 -70 9 -110 3 -40 7 -98 10 -128 11 -126 16 -199 20 -294 l5 -101
-163 -29 c-209 -36 -206 -35 -247 -41 -19 -3 -44 -8 -56 -10 -12 -3 -39 -7
-60 -10 -21 -4 -78 -13 -125 -21 -47 -7 -108 -16 -135 -19 -27 -3 -56 -8 -64
-10 -8 -2 -37 -7 -65 -10 -27 -4 -57 -8 -65 -10 -8 -2 -40 -7 -70 -10 -30 -3
-66 -8 -80 -10 -14 -3 -45 -7 -70 -10 -25 -3 -63 -8 -85 -11 -22 -3 -51 -7
-65 -9 -64 -10 -302 -39 -410 -50 -30 -4 -66 -8 -80 -10 -14 -2 -54 -7 -90
-10 -36 -4 -76 -9 -90 -10 -14 -2 -59 -6 -100 -10 -41 -3 -86 -8 -100 -10 -14
-2 -58 -7 -98 -10 l-73 -6 7 28 c28 118 134 339 241 503 155 236 345 445 638
699 269 234 748 551 1155 765 47 24 99 51 115 60 36 19 45 20 46 4z m4740
-1215 c0 -10 2 -27 3 -38 4 -27 17 -124 21 -155 4 -25 15 -125 20 -170 1 -14
5 -59 9 -100 4 -41 9 -95 11 -120 3 -25 7 -81 10 -125 2 -44 8 -127 11 -185 9
-137 12 -777 5 -814 -6 -26 -19 -34 -141 -88 -74 -32 -148 -65 -165 -73 -57
-26 -401 -172 -515 -219 -63 -26 -129 -54 -147 -62 -35 -16 -46 -18 -40 -6 3
4 8 43 11 87 4 44 9 109 12 145 3 36 7 85 9 110 24 267 24 1012 0 1260 -2 19
-6 76 -9 125 -4 50 -8 104 -11 122 -4 36 -42 20 315 133 107 34 278 91 380
125 102 35 191 64 198 64 6 1 12 -7 13 -16z m-18735 -99 c161 -52 650 -203
699 -215 l44 -11 -5 -62 c-2 -33 -6 -81 -9 -106 -4 -44 -10 -144 -20 -340 -6
-120 -6 -602 0 -735 6 -136 14 -280 20 -340 2 -27 7 -81 10 -120 3 -38 10
-110 16 -159 5 -49 8 -90 6 -92 -8 -8 -932 377 -951 396 -12 12 -17 132 -19
460 -1 262 7 595 18 680 2 19 6 76 9 125 7 98 14 173 21 220 2 17 7 62 10 100
4 39 8 79 10 90 1 11 6 48 10 83 4 34 11 62 14 62 4 0 57 -16 117 -36z m17218
-399 c3 -22 8 -87 11 -145 28 -509 17 -1008 -31 -1435 -2 -22 -6 -62 -9 -90
-3 -27 -8 -66 -10 -85 -3 -19 -7 -53 -10 -75 -11 -94 -15 -101 -58 -114 -18
-5 -75 -25 -127 -44 -244 -90 -319 -116 -665 -232 -436 -146 -950 -307 -1124
-351 -9 -2 -106 -29 -216 -59 -110 -31 -217 -59 -238 -64 l-38 -9 5 36 c3 21
8 62 11 92 4 30 8 66 10 80 2 14 6 54 10 90 3 36 8 72 10 80 2 8 7 53 10 100
3 47 8 96 10 110 2 14 7 68 10 120 3 52 8 111 10 130 2 19 7 91 11 160 4 69 8
145 9 170 9 135 18 518 19 743 0 141 3 257 6 258 3 0 12 2 20 4 8 2 73 15 145
30 71 14 132 28 135 30 3 2 25 6 50 10 25 4 47 8 51 10 3 2 20 7 37 10 29 5
151 30 192 40 8 2 85 19 170 39 250 56 281 64 590 141 270 67 635 163 770 202
30 9 55 16 55 15 0 0 36 10 80 23 44 13 81 22 82 21 1 0 4 -19 7 -41z m-15771
-30 c31 -8 83 -22 115 -31 74 -20 482 -125 502 -129 8 -2 43 -11 77 -20 35 -9
71 -18 80 -20 10 -2 54 -12 98 -24 44 -11 95 -23 114 -26 19 -3 37 -8 41 -10
3 -2 17 -6 31 -9 13 -2 85 -18 160 -35 75 -18 145 -33 155 -35 11 -2 50 -11
89 -20 72 -17 202 -45 245 -52 14 -3 33 -7 42 -10 15 -4 32 -8 83 -18 11 -2
88 -18 170 -34 83 -17 161 -33 175 -36 14 -3 34 -7 45 -9 11 -3 38 -8 60 -11
l40 -7 1 -292 c1 -161 3 -336 5 -389 1 -54 1 -99 -2 -101 -7 -7 -128 -61 -249
-111 -63 -27 -128 -54 -145 -62 -16 -7 -77 -31 -135 -53 -58 -22 -134 -51
-170 -64 -315 -121 -916 -305 -1333 -409 l-169 -42 -71 25 -72 25 -13 90 c-13
97 -22 165 -27 204 -45 392 -59 641 -59 1040 0 231 9 510 19 610 1 14 3 40 4
58 1 27 4 32 19 28 9 -3 43 -12 75 -21z m12752 -977 c-4 -194 -8 -380 -10
-413 -3 -70 -15 -292 -20 -350 -1 -22 -6 -83 -9 -135 -4 -52 -9 -106 -11 -120
-2 -14 -6 -63 -10 -110 -3 -47 -8 -96 -10 -110 -4 -24 -7 -50 -20 -180 -3 -30
-8 -66 -10 -80 -2 -14 -7 -47 -10 -75 -6 -57 -16 -131 -21 -160 -2 -11 -7 -42
-10 -70 -3 -27 -7 -51 -8 -53 -3 -2 -278 -66 -331 -76 -11 -2 -63 -13 -115
-24 -52 -12 -106 -23 -120 -25 -14 -3 -106 -21 -205 -41 -99 -19 -196 -38
-215 -41 -19 -3 -42 -8 -50 -10 -8 -2 -35 -7 -60 -10 -25 -4 -47 -8 -48 -10
-5 -4 -84 81 -187 200 -112 130 -116 135 -155 185 -19 25 -37 47 -41 50 -14
11 -197 262 -259 355 -309 463 -486 890 -526 1273 l-7 62 44 1 c24 0 51 2 61
4 9 2 54 6 100 10 45 4 96 8 111 10 15 2 60 6 100 10 40 4 83 8 97 10 14 1 54
6 90 10 36 4 79 9 95 11 17 2 53 6 80 9 28 3 84 10 125 15 41 5 98 12 125 15
28 4 61 8 75 10 14 2 52 7 85 11 33 3 67 8 76 9 9 2 40 6 70 10 30 3 110 15
179 25 69 11 148 22 175 26 28 3 57 8 67 9 9 2 38 7 65 11 26 3 55 8 65 10 9
1 38 6 65 10 26 3 57 8 68 10 10 2 37 6 60 9 22 3 47 8 55 10 8 3 35 7 59 10
24 3 47 7 50 9 3 2 29 7 56 11 28 3 66 9 85 14 19 4 48 8 64 9 l29 3 -8 -353z
m-9685 308 c41 -8 95 -17 120 -21 99 -14 175 -26 178 -30 7 -7 -312 -220 -395
-264 l-23 -12 0 171 c0 197 -12 181 120 156z m5509 -1106 c52 -94 109 -210
154 -310 89 -202 259 -686 366 -1045 28 -93 55 -182 60 -197 l9 -28 -51 -1
c-29 0 -65 -2 -82 -3 -16 -2 -88 -6 -160 -10 -71 -4 -159 -9 -195 -11 -93 -6
-446 -17 -570 -19 l-105 -1 1 30 c1 36 4 52 39 215 2 14 10 50 16 80 18 94 19
101 60 275 22 94 42 177 44 185 66 296 148 551 261 818 79 186 64 184 153 22z
m-3065 58 c26 -126 26 -563 1 -658 -2 -8 -6 -33 -10 -55 -8 -61 -25 -155 -45
-250 -6 -27 -12 -59 -14 -70 -9 -46 -69 -279 -103 -397 -21 -77 -40 -125 -47
-123 -6 2 -39 6 -73 10 -64 6 -122 12 -183 21 -19 3 -105 14 -189 25 -85 10
-166 21 -180 23 -15 3 -48 7 -75 11 -27 3 -85 12 -130 20 -44 7 -101 17 -126
20 -116 16 -486 80 -645 111 -11 2 -33 6 -50 9 -27 5 -75 14 -155 30 -14 3
-38 8 -55 11 -137 24 -296 62 -295 69 1 6 21 24 44 40 24 17 124 86 222 155
194 136 413 282 564 375 136 83 160 98 207 128 24 15 44 27 47 27 2 0 55 30
117 66 63 36 209 112 324 169 348 170 619 261 786 264 56 1 57 1 63 -31z
m11804 -265 c-4 -38 -10 -90 -13 -118 -4 -27 -8 -57 -10 -65 -2 -8 -6 -35 -9
-60 -10 -81 -50 -310 -92 -520 -14 -69 -27 -136 -30 -150 -17 -82 -110 -449
-149 -580 -9 -30 -18 -62 -20 -70 -25 -97 -159 -495 -222 -660 -24 -63 -56
-146 -70 -185 -48 -127 -47 -125 -169 -169 -375 -133 -1114 -378 -1122 -371
-1 1 29 67 67 146 84 177 183 402 251 574 28 72 58 144 65 160 24 55 152 429
190 550 20 66 40 131 45 145 11 31 108 387 113 415 2 11 7 27 10 35 3 8 7 26
10 40 2 14 20 97 40 185 39 175 43 194 57 274 5 29 11 55 12 56 2 1 89 36 193
78 268 107 451 183 665 275 102 44 188 81 191 81 3 1 2 -29 -3 -66z m-18668
-178 c74 -31 177 -73 229 -93 64 -25 86 -38 70 -40 -112 -12 -305 -73 -406
-127 -26 -14 -51 -25 -55 -25 -7 0 -13 26 -23 95 -11 78 -36 240 -40 262 l-4
22 47 -19 c26 -10 108 -44 182 -75z m16920 -492 c-48 -233 -233 -851 -320
-1068 -4 -11 -34 -87 -65 -170 -32 -82 -66 -168 -76 -190 -9 -22 -42 -96 -72
-165 -156 -355 -437 -904 -480 -938 -13 -10 -346 -102 -369 -102 -13 0 -313
200 -488 324 -25 18 -108 77 -185 132 -77 54 -145 103 -152 109 -6 5 -106 80
-222 165 -116 85 -210 160 -211 167 0 6 21 96 46 200 25 103 47 195 49 203 25
116 78 359 80 370 2 8 13 69 25 135 12 66 26 124 30 128 4 5 74 26 156 47 82
21 176 46 209 55 33 9 101 27 150 40 364 98 664 187 1225 367 85 27 164 53
175 58 11 5 90 33 175 61 85 29 189 65 230 80 100 36 99 36 90 -8z m-12989
-842 c7 -36 13 -70 14 -76 0 -5 6 -35 13 -65 6 -30 14 -66 16 -80 3 -14 7 -36
11 -50 3 -14 7 -34 9 -45 17 -86 115 -492 147 -610 44 -161 101 -364 119 -420
104 -331 258 -780 301 -872 10 -24 19 -46 19 -49 0 -6 -54 -1 -110 11 -14 3
-52 10 -85 16 -113 20 -460 90 -520 104 -33 8 -73 17 -90 20 -85 15 -532 117
-790 180 -33 9 -69 17 -80 19 -102 22 -371 99 -377 109 -26 38 -194 340 -247
442 -51 98 -60 121 -48 130 14 10 131 112 176 154 14 13 48 42 75 65 27 22 54
46 60 51 18 16 296 254 350 299 27 23 56 48 65 56 9 8 48 41 86 72 39 31 79
65 90 75 11 10 67 56 125 103 58 46 107 87 110 90 3 3 104 85 226 181 l221
176 51 -10 50 -11 13 -65z m9905 -29 c-2 -9 -7 -30 -10 -47 -4 -16 -8 -39 -10
-50 -3 -11 -14 -63 -26 -115 -12 -52 -24 -108 -26 -123 -3 -15 -11 -43 -17
-62 l-12 -35 -33 29 c-91 77 -359 316 -357 318 1 2 66 16 146 33 197 40 293
61 296 63 1 2 14 4 28 5 21 1 25 -2 21 -16z m-9161 -71 c28 -6 61 -13 75 -15
14 -3 63 -12 110 -21 47 -9 96 -19 110 -21 14 -3 88 -16 165 -30 77 -14 151
-28 165 -29 14 -2 79 -13 145 -24 66 -11 149 -25 185 -30 229 -34 221 -32 310
-47 25 -3 59 -8 75 -10 17 -1 102 -12 190 -24 88 -11 180 -23 205 -26 25 -4
46 -7 48 -9 3 -2 -18 -61 -38 -110 -5 -11 -25 -65 -45 -120 -56 -153 -74 -200
-186 -480 -73 -185 -189 -467 -213 -520 -8 -16 -26 -58 -40 -92 -14 -35 -37
-86 -50 -115 -13 -29 -38 -87 -56 -128 -18 -41 -48 -108 -66 -148 -19 -41 -34
-75 -34 -78 0 -4 -42 -97 -95 -207 -25 -53 -29 -58 -53 -53 -15 3 -47 8 -72
11 -25 3 -52 7 -60 9 -8 3 -42 7 -75 11 -33 3 -63 9 -67 13 -18 19 -238 583
-303 777 -15 44 -30 89 -35 100 -12 28 -148 464 -156 500 -1 6 -18 66 -37 135
-35 124 -132 503 -142 557 -9 50 -15 77 -33 160 l-19 83 21 -5 c12 -2 44 -9
71 -14z m6029 -435 c18 -66 21 -102 13 -151 -3 -16 -9 -50 -12 -75 -4 -25 -9
-54 -11 -65 -2 -10 -6 -37 -9 -60 -4 -22 -17 -103 -30 -180 -13 -77 -26 -156
-29 -175 -3 -19 -8 -46 -11 -60 -3 -14 -8 -38 -10 -55 -51 -298 -249 -1250
-264 -1267 -7 -8 -110 -15 -331 -24 -80 -3 -188 -7 -240 -9 -52 -3 -256 -7
-452 -11 l-358 -6 0 29 c0 25 4 62 25 238 5 44 10 91 20 176 3 31 7 65 9 75 2
11 7 48 10 84 7 70 14 124 21 180 3 19 7 53 9 75 11 91 27 212 32 245 2 19 7
53 10 75 5 43 13 105 19 145 2 14 6 48 10 75 3 28 10 77 15 110 5 33 12 76 14
95 3 19 12 80 20 135 8 55 18 123 21 150 4 28 11 68 15 90 5 22 12 65 15 95 4
30 9 58 13 61 4 4 151 10 327 14 176 4 347 8 380 10 33 2 121 6 195 10 74 4
158 8 185 10 28 2 99 6 160 10 60 3 110 7 112 8 1 2 22 3 46 4 l44 2 17 -63z
m6865 -1383 c-127 -235 -360 -616 -500 -816 -8 -12 -27 -2 -331 181 -464 280
-449 269 -436 297 13 29 7 27 333 124 270 80 326 98 615 192 85 28 162 53 170
54 8 2 15 4 15 5 0 2 162 58 173 59 8 1 -8 -39 -39 -96z m-16139 -237 c225
-69 668 -196 683 -196 7 0 31 -28 52 -62 147 -232 544 -791 595 -838 3 -3 50
-61 105 -130 54 -69 104 -130 110 -136 5 -6 19 -22 30 -35 60 -72 149 -175
154 -179 3 -3 21 -23 40 -45 42 -49 226 -249 301 -326 156 -160 147 -150 114
-140 -68 20 -675 244 -749 276 -16 7 -73 29 -125 50 -52 20 -108 43 -125 50
-16 7 -109 45 -205 85 -349 146 -355 149 -415 222 -375 456 -596 756 -841
1143 -83 131 -81 116 -19 176 98 94 137 129 143 129 4 0 72 -20 152 -44z
m9674 -51 c3 -16 15 -75 26 -130 12 -55 24 -111 26 -125 3 -14 9 -43 14 -65 5
-22 8 -41 6 -42 -1 -1 -40 -5 -86 -9 -47 -3 -89 -8 -94 -12 -5 -3 -6 3 -2 13
6 17 18 64 30 125 7 33 13 61 32 146 20 91 22 105 23 129 1 27 19 7 25 -30z
m-7919 -420 c17 -3 44 -9 60 -14 17 -5 55 -14 85 -20 30 -6 114 -25 185 -41
72 -16 141 -31 155 -34 14 -2 117 -23 230 -47 113 -23 225 -45 250 -50 78 -14
104 -19 156 -30 28 -5 61 -12 75 -14 13 -2 78 -13 144 -25 66 -12 157 -28 203
-36 46 -8 93 -16 105 -18 12 -3 28 -5 35 -5 7 -1 19 -18 27 -39 21 -51 214
-435 225 -446 5 -5 5 -19 0 -31 -10 -26 -195 -409 -212 -440 -12 -22 -175
-349 -203 -408 -15 -33 -20 -36 -34 -24 -249 205 -688 633 -951 926 -41 46
-79 89 -85 95 -141 156 -511 617 -568 706 l-18 28 53 -14 c29 -8 67 -16 83
-19z m8125 -562 c0 -2 11 -59 24 -126 39 -195 144 -729 150 -762 2 -16 19
-102 36 -190 16 -88 33 -173 36 -190 3 -16 14 -75 24 -130 21 -106 26 -138 36
-197 6 -34 2 -43 -41 -95 -57 -69 -104 -113 -119 -113 -10 0 -93 -12 -181 -25
-16 -2 -52 -7 -80 -10 -27 -4 -61 -8 -75 -10 -14 -2 -47 -7 -75 -10 -27 -3
-66 -8 -85 -11 -19 -2 -57 -6 -85 -9 -27 -3 -66 -7 -85 -9 -19 -3 -64 -8 -100
-11 -36 -3 -81 -8 -100 -10 -47 -6 -129 -13 -222 -20 l-77 -6 9 28 c4 15 28
91 53 168 71 221 122 386 177 575 29 96 63 211 76 255 13 44 26 89 29 100 2
11 33 126 68 255 36 129 81 299 102 378 l38 142 41 1 c23 0 55 2 71 4 40 4
152 14 245 21 41 3 76 7 77 8 4 4 33 3 33 -1z m-1130 -87 c0 -16 -86 -334
-180 -666 -33 -115 -169 -567 -191 -635 -11 -33 -22 -67 -24 -75 -5 -22 -102
-320 -137 -422 l-30 -86 -51 -4 c-29 -2 -193 -3 -366 -3 l-314 0 -59 175 -59
175 6 115 c4 63 8 131 10 150 2 19 6 73 9 120 4 47 9 105 11 130 2 25 7 81 10
125 8 106 12 156 20 240 9 106 13 153 21 240 3 44 8 94 10 110 1 17 6 65 9
108 4 43 8 86 10 95 2 9 4 33 4 52 l1 35 303 3 c166 2 358 5 427 7 264 8 505
17 507 19 8 7 53 0 53 -8z m-6090 -1776 c113 -34 206 -63 207 -64 2 -2 -144
-286 -150 -293 -10 -9 -548 360 -677 465 -19 15 -70 54 -113 87 -43 32 -80 61
-82 64 -2 3 135 -40 303 -96 169 -56 399 -129 512 -163z m7680 -584 c0 -13 3
-31 6 -39 3 -10 -14 -25 -58 -49 -35 -20 -81 -45 -103 -57 -39 -22 -38 -21 22
41 34 34 74 78 89 96 34 38 44 40 44 8z m-1041 -108 c-246 -220 -616 -511
-862 -677 l-47 -32 31 83 c95 258 173 470 191 523 11 33 25 65 32 72 6 6 58
14 116 18 58 3 128 8 155 10 208 17 310 27 312 29 2 1 26 3 55 4 l53 2 -36
-32z m-1341 -77 c-18 -47 -69 -185 -96 -261 -15 -42 -31 -77 -37 -79 -8 -2
-36 65 -116 284 -16 44 -29 80 -29 80 0 0 65 0 144 1 l144 1 -10 -26z m-762
-468 c9 -21 17 -42 18 -48 2 -5 7 -19 11 -30 34 -82 62 -165 57 -165 -5 0
-137 85 -156 101 -7 6 41 179 50 179 2 0 11 -17 20 -37z m3347 -30 c3 -10 19
-42 36 -70 l31 -53 -32 -13 c-67 -28 -678 -191 -678 -182 0 2 87 47 193 100
105 54 197 101 202 105 6 4 55 31 110 60 55 29 104 56 110 61 14 13 22 11 28
-8z"/>
</g>
</svg>
