<?xml version="1.0" encoding="UTF-8" standalone="no"?>
<!DOCTYPE svg PUBLIC "-//W3C//DTD SVG 1.1//EN" "http://www.w3.org/Graphics/SVG/1.1/DTD/svg11.dtd">
<svg width="100%" height="100%" viewBox="0 0 2134 2189" version="1.1" xmlns="http://www.w3.org/2000/svg" xmlns:xlink="http://www.w3.org/1999/xlink" xml:space="preserve" xmlns:serif="http://www.serif.com/" style="fill-rule:evenodd;clip-rule:evenodd;stroke-linecap:square;stroke-miterlimit:1.5;">
    <g transform="matrix(1,0,0,1,-168.566,-1271.34)">
        <g id="Idea-2" serif:id="Idea 2" transform="matrix(1,0,0,1,-2.3622,611.438)">
            <g transform="matrix(1.03109,0,0,1.00247,-36.1921,-1.91145)">
                <ellipse cx="1240.16" cy="1753.94" rx="954.194" ry="981.364" style="fill-opacity:0;stroke:black;stroke-width:61.46px;"/>
            </g>
            <path d="M1240.16,2740.16C445.849,2310.94 653.126,923.297 1242.52,772.573" style="fill:none;stroke:black;stroke-width:62.5px;stroke-linecap:butt;"/>
            <g transform="matrix(-1,0,0,1,2482.68,2.27374e-13)">
                <path d="M1240.16,2740.16C445.849,2310.94 653.126,923.297 1242.52,772.573" style="fill:none;stroke:black;stroke-width:62.5px;stroke-linecap:butt;"/>
            </g>
            <path d="M1240.16,2740.16C142.774,2384.01 131.696,1092.58 1240.16,772.575" style="fill:none;stroke:black;stroke-width:62.5px;stroke-linecap:butt;"/>
            <g transform="matrix(-1,0,0,1,2480.31,-2.42803)">
                <path d="M1240.16,2740.16C142.774,2384.01 131.696,1092.58 1240.16,772.575" style="fill:none;stroke:black;stroke-width:62.5px;stroke-linecap:butt;"/>
            </g>
            <path d="M1252.43,2740.16C986.087,2096.35 946.119,1441.36 1240.16,772.573" style="fill:none;stroke:black;stroke-width:62.5px;stroke-linecap:butt;"/>
            <g transform="matrix(-1,0,0,1,2458.83,0)">
                <path d="M1218.67,2740.16C952.329,2096.35 924.631,1441.36 1218.67,772.573" style="fill:none;stroke:black;stroke-width:62.5px;stroke-linecap:butt;"/>
            </g>
            <path d="M508.136,2410.77C1004.33,2632.19 1500.52,2621.64 1996.72,2387.86" style="fill:none;stroke:black;stroke-width:62.5px;stroke-linecap:butt;"/>
            <path d="M347.922,2166.11C946.938,2379.74 1545.95,2368.37 2144.97,2148.55" style="fill:none;stroke:black;stroke-width:62.5px;stroke-linecap:butt;"/>
            <path d="M258.661,1827.49C914.567,2122.25 1570.47,2114.96 2226.38,1812.42" style="fill:none;stroke:black;stroke-width:62.5px;stroke-linecap:butt;"/>
            <path d="M258.661,1579.04C909.04,1802.05 1559.42,1805.62 2209.8,1575.72" style="fill:none;stroke:black;stroke-width:62.5px;stroke-linecap:butt;"/>
            <path d="M378.969,1284.87C951.121,1533.59 1523.27,1527.71 2095.43,1265.93" style="fill:none;stroke:black;stroke-width:62.5px;stroke-linecap:butt;"/>
            <path d="M573.786,1035.02C1019.1,1247.39 1464.42,1246.51 1909.74,1033.62" style="fill:none;stroke:black;stroke-width:62.5px;stroke-linecap:butt;"/>
            <path d="M1612.57,844.639C1371.88,972.775 1119.84,973.035 856.938,851.114" style="fill:none;stroke:black;stroke-width:62.5px;stroke-linecap:butt;"/>
        </g>
        <g id="Main-Blob" serif:id="Main Blob" transform="matrix(0.805292,0,0,0.805292,217.326,919.232)">
            <path d="M827.422,1872.23C565.77,2006.21 176.551,2385.26 176.551,2385.26C72.167,2481.73 23.995,2069.17 176.551,2055.93C176.551,2055.93 587.708,1994.76 793.287,1818.92C998.866,1643.08 998.866,1352.56 176.551,893.854C88.398,844.264 74.925,743.368 176.551,680.042C387.345,550.296 684.665,535.622 715.857,680.042C715.857,680.042 822.452,1142.07 1035.99,1373.08C1249.54,1604.1 1570.03,1604.1 1997.82,680.042C2063,531.491 2231.3,584.054 2326.16,680.042C2469.65,831.774 2509.5,1206.47 2326.16,1240.86C2326.16,1240.86 1857.07,1323.74 1622.52,1535.68C1387.98,1747.62 1387.98,2088.63 2326.16,2604.91C2420.87,2659.49 2402.13,2750.84 2326.16,2829.65C2127.66,3033.46 1708.74,3064 1666.37,2829.65C1461.29,1661.13 1327.12,1661.13 1244.22,1953.26C1161.32,2245.39 1129.69,2829.65 1129.69,2829.65C1109.77,3116.66 607.702,3031.8 712.885,2829.65C1223.16,1849.35 1089.07,1738.25 827.422,1872.23Z" style="fill:rgb(187,0,72);"/>
            <path d="M862.795,1941.31L871.19,1937.08C890.652,1927.44 909.207,1919.41 926.611,1913.48C940.23,1908.83 952.908,1905.49 964.537,1904.16C968.374,1903.72 973.828,1903.91 977.209,1904.13C978.665,1909.86 981.825,1923.52 982.026,1934.51C984.373,2062.8 889.121,2322.98 644.041,2793.81L644.038,2793.82C564.165,2947.33 692.801,3074.26 867.235,3090.37C1022.55,3104.71 1193.64,3029.07 1207.11,2835.02L1207.15,2834.43C1207.19,2833.84 1237.6,2260.89 1318.88,1974.44C1326.47,1947.69 1338.61,1918.99 1348.68,1897.31C1359.15,1914.89 1371.55,1937.74 1381.12,1961.37C1440.64,2108.29 1509.35,2383.94 1589.92,2843.06L1589.96,2843.26C1613.04,2970.89 1713.37,3046.17 1848.27,3066.34C2018.5,3091.8 2245.56,3023.64 2381.76,2883.8L2381.89,2883.66C2447.75,2815.34 2476.66,2737.72 2465.46,2671.88C2456.92,2621.68 2427.38,2573.67 2364.91,2537.66L2364.24,2537.28C2001.25,2337.53 1782.69,2166.79 1666.74,2018.7C1592.79,1924.24 1563.44,1842.85 1570.95,1770.54C1578.15,1701.22 1619.17,1643.32 1674.56,1593.26C1895.94,1393.22 2339.66,1317.29 2339.66,1317.29L2340.06,1317.22C2446.33,1297.29 2510.02,1205.83 2523.83,1080.82C2540.46,930.261 2482.33,732.222 2382.55,626.714L2381.96,626.094C2250,492.566 2017.67,443.022 1927.07,648.126C1762.68,1003.09 1616.64,1217.35 1485.19,1331C1403.7,1401.46 1331.59,1429.9 1265.41,1422.75C1199.86,1415.66 1143.39,1374.92 1092.99,1320.4C894.879,1106.08 795.742,681.152 791.617,663.183C776.453,593.762 726.551,543.664 649.945,518.185C522.622,475.839 304.529,510.135 135.869,613.947L135.686,614.059C54.81,664.456 25.169,732.946 27.843,795.419C30.55,858.642 67.66,921.648 138.498,961.497L138.62,961.566C455.067,1138.09 645.99,1287.15 747.214,1415.14C809.61,1494.03 835.317,1560.84 828.98,1619.99C823.033,1675.5 788.583,1720.81 742.839,1759.94C558.767,1917.39 197.609,1974.3 167.183,1978.86C95.06,1986.28 42.829,2039.16 18.328,2118C-8.757,2205.15 0.663,2324.29 30.995,2391.21C54.948,2444.06 93.832,2471.16 130.733,2476.41C160.187,2480.59 194.608,2474.25 229.226,2442.26L229.972,2441.57C230.699,2440.86 608.433,2071.56 862.795,1941.31ZM827.422,1872.23C565.77,2006.21 176.551,2385.26 176.551,2385.26C72.167,2481.73 23.995,2069.17 176.551,2055.93C176.551,2055.93 587.708,1994.76 793.287,1818.92C998.866,1643.08 998.866,1352.56 176.551,893.854C88.398,844.264 74.925,743.368 176.551,680.042C387.345,550.296 684.665,535.622 715.857,680.042C715.857,680.042 822.452,1142.07 1035.99,1373.08C1249.54,1604.1 1570.03,1604.1 1997.82,680.042C2063,531.491 2231.3,584.054 2326.16,680.042C2469.65,831.774 2509.5,1206.47 2326.16,1240.86C2326.16,1240.86 1857.07,1323.74 1622.52,1535.68C1387.98,1747.62 1387.98,2088.63 2326.16,2604.91C2420.87,2659.49 2402.13,2750.84 2326.16,2829.65C2127.66,3033.46 1708.74,3064 1666.37,2829.65C1461.29,1661.13 1327.12,1661.13 1244.22,1953.26C1161.32,2245.39 1129.69,2829.65 1129.69,2829.65C1109.77,3116.66 607.702,3031.8 712.885,2829.65C1223.16,1849.35 1089.07,1738.25 827.422,1872.23Z"/>
        </g>
    </g>
</svg>
