<?xml version="1.0" encoding="UTF-8" standalone="no"?>
<!DOCTYPE svg PUBLIC "-//W3C//DTD SVG 1.1//EN" "http://www.w3.org/Graphics/SVG/1.1/DTD/svg11.dtd">
<svg width="100%" height="100%" viewBox="0 0 198 198" version="1.1" xmlns="http://www.w3.org/2000/svg" xmlns:xlink="http://www.w3.org/1999/xlink" xml:space="preserve" xmlns:serif="http://www.serif.com/" style="fill-rule:evenodd;clip-rule:evenodd;stroke-linejoin:round;stroke-miterlimit:2;">
    <g id="l5RolrW1OXlweUGHfbuLjqj" transform="matrix(1.0432,0,0,1.04628,-4.79874,-4.79778)">
        <path id="p117hQXWjV" d="M67.3,188.6C42.5,179.5 24.3,162.8 12.9,138.6C6.8,125.5 4.6,115 4.6,99C4.6,82.2 6.9,71.9 14,57.4C26.5,31.7 48.1,14.1 76.5,6.4C82.1,4.9 86.8,4.5 100,4.6C115,4.6 117.3,4.9 125.3,7.3C153.6,16 174.8,34.4 184,58.2C189.2,71.6 190.3,79.3 189.7,97.4C189.4,109.8 188.7,115.2 187.1,120.8C177.2,154.6 149.4,178.2 115,182.1C70,187.2 32.2,161.1 24.3,119.7C22.4,109.7 23,90.5 25.5,81.5C32.4,56.6 53.2,36.7 77.6,31.5C87.8,29.3 104,29.6 113.6,32C143.1,39.5 162,63.9 162,94.4C161.9,113.2 156.5,127.6 145.1,138.9C132.9,151.1 116.9,156.9 99,155.7C79.8,154.3 66.2,146.9 56.9,132.6C51.1,123.8 49,115.9 49,103.1C49,86.7 52.2,77.8 61.7,67.9C68.7,60.5 77.1,56.4 88,54.8C108.6,51.9 126.6,60.3 134.7,76.7C137.2,81.9 137.5,83.8 137.8,94C138.2,108 136.4,114.2 129.4,121.9C122.9,129.2 115.9,132.3 105,132.8C93.3,133.4 86.8,131.5 80.2,125.5C72.8,118.8 70.6,113.6 70.6,102.5C70.6,95.1 71,92.6 72.9,88.8C77.3,79.7 83.9,76 96,76C105.1,76 109.2,77.4 113.2,81.6C116.8,85.5 118,89 118,96.2C118,108 113.2,113 101.9,113C96.6,113 94.7,112.6 92.6,110.9C90,108.9 89.9,108.3 90.2,101.8C90.5,95.1 90.5,94.9 88.8,97.1C82.7,104.6 95.2,118.8 105.3,115.9C112.2,113.9 118.8,107 120.8,99.7C124.1,87.8 109.5,71.8 95.4,71.8C81.2,71.8 66.6,87.4 66.5,102.5C66.5,113.5 74.3,126 85.2,132.4C92.2,136.5 101.3,138.4 107.7,137.1C125.3,133.6 139.6,118.8 142.9,100.7C144.2,93.3 143,86.7 138.6,77.5C132.5,64.7 122.8,56.3 108.7,51.5C96.5,47.4 85.3,48.6 72.6,55.3C64.7,59.4 53.4,70.7 49.3,78.5C37.9,100.4 42.7,126.4 61.5,144.4C72.6,155 86,160.9 100.5,161.7C111.6,162.4 119.1,160.7 131,154.8C142.6,149.2 154.7,137.2 160.8,125.3C168.5,110.5 170.8,95.2 167.5,81.2C160.4,51.1 135.9,28.4 104.5,22.9C84,19.4 59,27.7 42,43.7C32.5,52.6 28.3,58.1 23.1,68.6C14.8,85.2 12.3,105.2 16.4,122C22.8,148.2 41.9,171.6 66.1,183C70.2,184.9 73.7,186.8 73.8,187.3C74,187.7 75.5,188 77.1,188C79.3,188 80,188.5 80,190C80,192.7 78.2,192.5 67.3,188.6ZM99.5,93C98.7,91.7 95,91.7 93,93C91.9,93.7 92.7,94 95.8,94C98.4,94 99.9,93.6 99.5,93Z" style="fill-rule:nonzero;"/>
        <path id="plAZF3ZYh" d="M80.5,192.4C76.7,191.6 69.3,188.9 64.1,186.4C43.5,176.7 29.2,162.3 19.6,141.8C13.2,128.2 11.5,120.2 11.5,104C11.6,88.1 13.7,78.3 20.1,65.6C25.3,55.1 29.5,49.6 39,40.7C53,27.6 70.3,20.2 89.6,19.3C112.8,18.1 132.4,25.1 148.5,40.2C163.9,54.5 172,73.3 172,94.6C172,114.7 165.4,130.7 151.1,145.1C144.2,152 140.9,154.5 134,157.8C122.5,163.5 115.5,165.1 103.5,165.1C91.9,165.1 84.3,163.4 74.5,158.5C52.8,147.8 39.6,126.9 39.7,103C39.8,86.6 45,73.9 56.5,62.5C67.9,51 79.9,46 95.8,46C120.9,46 142.1,63.9 146.2,88.4C148.5,102.2 143.3,117.9 133.1,128.1C112.5,148.6 78.7,143.6 66.7,118.2C63.8,112.2 63.5,110.5 63.5,102.5C63.5,94.9 63.9,92.6 66.1,87.9C75.9,67 102.3,61.9 117.4,78C121.8,82.7 125,90.2 125,95.9C125,106.9 115.9,118 105.5,119.5C92.8,121.5 81.3,110.3 84,98.7C86.2,88.9 98.4,84.6 104,91.7C106.5,94.9 106.5,97.1 104.2,100.1C102,102.7 99,102.1 99,99C99,96.5 94.5,96.2 93.6,98.6C91.3,104.6 95.2,110 101.9,110C111.2,110 117.5,99.8 113.9,90.3C111.3,83.4 104.4,79 96,79C82.9,79 73.8,88.7 73.8,102.5C73.8,110.7 76.5,116.4 83.2,122.5C95.5,133.6 114.6,132 126.4,118.9C132.3,112.3 135,105 135,95.5C135,60.1 90,44.4 64.7,70.9C55.9,80.1 52,89.9 52,103.1C52,134.7 81.7,158.1 113.5,151.5C150.5,143.8 169.8,102.3 152.4,67.8C137.1,37.5 98.4,24.4 67.2,39C22.9,59.7 12.3,116.9 45.9,154.1C62.3,172.3 88,181.8 113,179C146.4,175.2 174.4,151.1 184.1,117.8C187,107.6 187.8,87.3 185.7,76.8C181.2,55.3 168.9,35.5 151.6,22.2C148.3,19.6 141.2,15.3 136,12.7C125,7.1 127.6,7.3 139.7,13C166.3,25.5 184.1,47.1 191.7,76C195.3,89.6 195.3,108.4 191.7,122C182.9,155.7 158.7,180.6 125.3,190.6C114,194 91.7,194.9 80.5,192.4Z" style="fill:white;fill-rule:nonzero;"/>
    </g>
</svg>
